<svg xmlns="http://www.w3.org/2000/svg" viewBox="0 0 64 64" fill="none">
  <defs>
    <linearGradient id="fg" x1="0" y1="0" x2="64" y2="64" gradientUnits="userSpaceOnUse">
      <stop offset="0%" stop-color="#F0D070"/>
      <stop offset="40%" stop-color="#D4A843"/>
      <stop offset="100%" stop-color="#A07828"/>
    </linearGradient>
    <linearGradient id="fl" x1="12" y1="10" x2="48" y2="52" gradientUnits="userSpaceOnUse">
      <stop offset="0%" stop-color="#FCEABB" stop-opacity="0.85"/>
      <stop offset="100%" stop-color="#D4A843" stop-opacity="0"/>
    </linearGradient>
  </defs>
  
  <!-- Background -->
  <rect width="64" height="64" rx="14" fill="#0D1017"/>
  <rect width="64" height="64" rx="14" fill="none" stroke="#1E2640" stroke-width="1"/>

  <!-- P base layer -->
  <path d="M 18 12 L 40 12 C 51 12, 54 21, 54 27 C 54 34, 49 39, 40 39 L 26 39 L 26 52 L 18 52 Z"
        fill="url(#fg)" opacity="0.6"/>

  <!-- P highlight layer — the inner counter of the P -->
  <path d="M 26 19 L 37 19 C 44 19, 46 23, 46 27 C 46 31, 43 33, 37 33 L 26 33 Z"
        fill="#0D1017"/>

  <!-- Light shard on stem -->
  <rect x="20" y="15" width="4" height="34" rx="1.5" fill="url(#fl)" opacity="0.6"/>

  <!-- Light shard on bowl -->
  <path d="M 28 20 L 36 20 C 42 20, 44 23, 44 27 C 44 30, 42 32, 36 32 L 28 32 L 28 28 L 34 28 C 36 28, 37 27, 37 26 C 37 25, 36 24, 34 24 L 28 24 Z"
        fill="url(#fl)"/>
</svg>
